<svg width="64" height="64" version="1.1" viewBox="0 0 16.933 16.933" xmlns="http://www.w3.org/2000/svg" xmlns:xlink="http://www.w3.org/1999/xlink">
 <defs>
  <path id="p4" d="m174.87 129.15c6.22 5.43 12.63 10.68 18.74 16.25 1.61 1.28 1.62 3.61 2.13 5.5-6.72 6.57-13.28 13.3-19.99 19.88-7.32-6.03-14.12-12.73-21.16-19.09.55-2.53.28-4.83 2.42-6.63 5.93-5.3 11.74-10.83 17.86-15.91zm-8.37 15.22c2.95 1.05 5.85 2.43 8.89 3.21 3.58-.4 7.16-1.88 10.71-2.63-3.49-4.69-7.45-9.03-11.2-13.5-2.95 4.2-5.69 8.55-8.4 12.92zm-10.17 5.51c2.68-1.83 5.53-3.52 8.03-5.6 2.41-2.55 4.06-5.93 5.8-8.96-3.83 3.45-7.71 6.84-11.51 10.32-1.38 1.16-1.8 2.56-2.32 4.24zm.47 1.67c5.9 5.64 12.07 10.99 18.01 16.59.02-6.34 0-12.67-.01-19.01-3.02-1.06-5.98-2.3-8.94-3.52-3.17 1.65-6.1 3.87-9.06 5.94z"/>
  <path id="p10" d="m174.9 131.45c3.75 4.47 7.71 8.81 11.2 13.5-3.55.75-7.13 2.23-10.71 2.63-3.04-.78-5.94-2.16-8.89-3.21 2.71-4.37 5.45-8.72 8.4-12.92z"/>
  <path id="p14" d="m170.16 135.32c-1.74 3.03-3.39 6.41-5.8 8.96-2.5 2.08-5.35 3.77-8.03 5.6.52-1.68.94-3.08 2.32-4.24 3.8-3.48 7.68-6.87 11.51-10.32z"/>
  <path id="p20" d="m165.86 145.61c2.96 1.22 5.92 2.46 8.94 3.52.01 6.34.03 12.67.01 19.01-5.94-5.6-12.11-10.95-18.01-16.59 2.96-2.07 5.89-4.29 9.06-5.94z"/>
 </defs>
 <use transform="matrix(.35278 0 0 .35278 -53.339 -44.38)" width="100%" height="100%" fill="#333333" xlink:href="#p4"/>
 <use transform="matrix(.35278 0 0 .35278 -53.339 -44.38)" width="100%" height="100%" fill="#e6e6e6" xlink:href="#p10"/>
 <use transform="matrix(.35278 0 0 .35278 -53.339 -44.38)" width="100%" height="100%" fill="#e6e6e6" xlink:href="#p14"/>
 <use transform="matrix(.35278 0 0 .35278 -53.339 -44.38)" width="100%" height="100%" fill="#e6e6e6" xlink:href="#p20"/>
</svg>
