<svg width="64" height="64" version="1.1" viewBox="0 0 16.933 16.933" xmlns="http://www.w3.org/2000/svg" xmlns:xlink="http://www.w3.org/1999/xlink">
 <defs>
  <path id="p2" d="m224.82 128.03c3.54 1.72 6.88 3.87 10.3 5.8 4.11 2.33 6.89 5.77 10.11 9.16-.31 4.8.51 10.15-.41 14.79-5.56 4.47-11.7 8.4-17.5 12.57-1.14.54-2.39 2.15-3.65 1.02-5.31-3.68-10.46-7.61-15.86-11.16-1.09-.8-2.43-1.56-3.23-2.67-.48-4.87-.04-9.87-.1-14.76 3.25-3.14 5.64-6.39 9.58-8.66 3.56-2.06 7.1-4.21 10.76-6.09zm-11.6 8.46c1.52 3.42 2.91 6.89 4.24 10.38 4.87.21 9.74.12 14.61.11 1.35-3.54 2.83-7 4.46-10.42-3.83-2.43-7.74-4.74-11.74-6.87-3.98 2.03-7.77 4.45-11.57 6.8zm-7.18 6.83c-.07 4.56-.07 9.11.02 13.66 2.4.91 4.81 1.8 7.22 2.69.79-3.98 2.23-7.85 2.77-11.85-.94-3.59-2.79-6.95-4.06-10.44-1.99 1.97-3.97 3.96-5.95 5.94zm11.65 5.25c-1.21 3.97-2.13 8.05-3.01 12.1 3.39 3.12 6.71 6.31 10.05 9.47 3.29-3.12 6.93-6.04 9.97-9.39.02-4.04-1.89-8.3-2.75-12.27-4.75.07-9.51-.09-14.26.09z"/>
  <path id="p6" d="m224.79 129.69c4 2.13 7.91 4.44 11.74 6.87-1.63 3.42-3.11 6.88-4.46 10.42-4.87.01-9.74.1-14.61-.11-1.33-3.49-2.72-6.96-4.24-10.38 3.8-2.35 7.59-4.77 11.57-6.8z"/>
  <path id="p16" d="m211.99 137.38c1.27 3.49 3.12 6.85 4.06 10.44-.54 4-1.98 7.87-2.77 11.85-2.41-.89-4.82-1.78-7.22-2.69-.09-4.55-.09-9.1-.02-13.66 1.98-1.98 3.96-3.97 5.95-5.94z"/>
  <path id="p21" d="m231.95 148.48c.86 3.97 2.77 8.23 2.75 12.27-3.04 3.35-6.68 6.27-9.97 9.39-3.34-3.16-6.66-6.35-10.05-9.47.88-4.05 1.8-8.13 3.01-12.1 4.75-.18 9.51-.02 14.26-.09z"/>
 </defs>
 <use transform="matrix(.35278 0 0 .35278 -70.876 -44.38)" width="100%" height="100%" fill="#333333" xlink:href="#p2"/>
 <use transform="matrix(.35278 0 0 .35278 -70.876 -44.38)" width="100%" height="100%" fill="#e6e6e6" xlink:href="#p6"/>
 <use transform="matrix(.35278 0 0 .35278 -70.876 -44.38)" width="100%" height="100%" fill="#e6e6e6" xlink:href="#p16"/>
 <use transform="matrix(.35278 0 0 .35278 -70.876 -44.38)" width="100%" height="100%" fill="#e6e6e6" xlink:href="#p21"/>
</svg>
