<svg width="64" height="64" version="1.1" viewBox="0 0 16.933 16.933" xmlns="http://www.w3.org/2000/svg" xmlns:xlink="http://www.w3.org/1999/xlink">
 <defs>
  <path id="p1" d="m274.25 126.84c6.73 3.64 13.04 8.1 19.45 12.26.19 7.24 1.02 14.44 1.16 21.67-6.74 4.13-13.57 8.05-20.14 12.45-5.98-3.18-11.57-7.07-17.42-10.49-1.2-.92-3.61-1.83-3.27-3.68.4-6.78.75-13.59 1.43-20.35 6.38-3.77 12.5-7.95 18.79-11.86zm-9.85 13.35c6.71.04 13.43.06 20.15.03-3.19-3.87-6.66-7.49-9.91-11.3-3.72 3.44-6.91 7.47-10.24 11.27zm1.52-6.22c-2.66 1.72-5.35 3.37-7.99 5.11 1.59.09 3.98 1.63 5.2.09 2.34-2.21 4.27-4.93 6.28-7.44-1.16.75-2.33 1.49-3.49 2.24zm-9.1 6.39c-.1 1.07-.2 2.15-.3 3.23-.33 3.79-.55 7.58-.61 11.39 1.97-4.42 3.69-8.93 5.57-13.39-1.56-.4-3.11-.81-4.66-1.23zm7.03 1.32c3.55 6.13 6.98 12.32 10.69 18.36 3.49-6.12 7.01-12.23 10.53-18.34-7.07.08-14.15.13-21.22-.02zm-1.2 1.16c-2.4 5.53-4.5 11.18-6.79 16.76 5.69.35 11.39.66 17.07 1.16-3.1-6.14-6.76-12.01-10.28-17.92zm-4.97 18.43c5.41 3.07 10.61 6.48 15.97 9.64.07-2.87.08-5.74.04-8.61-5.33-.44-10.66-.86-16.01-1.03z"/>
  <path id="p5" d="m274.64 128.92c3.25 3.81 6.72 7.43 9.91 11.3-6.72.03-13.44.01-20.15-.03 3.33-3.8 6.52-7.83 10.24-11.27z"/>
  <path id="p11" d="m269.41 131.73c-2.01 2.51-3.94 5.23-6.28 7.44-1.22 1.54-3.61 0-5.2-.09 2.64-1.74 5.33-3.39 7.99-5.11 1.16-.75 2.33-1.49 3.49-2.24z"/>
  <path id="p17" d="m256.82 140.36c1.55.42 3.1.83 4.66 1.23-1.88 4.46-3.6 8.97-5.57 13.39.06-3.81.28-7.6.61-11.39.1-1.08.2-2.16.3-3.23z"/>
  <path id="p18" d="m263.85 141.68c7.07.15 14.15.1 21.22.02-3.52 6.11-7.04 12.22-10.53 18.34-3.71-6.04-7.14-12.23-10.69-18.36z"/>
  <path id="p19" d="m262.65 142.84c3.52 5.91 7.18 11.78 10.28 17.92-5.68-.5-11.38-.81-17.07-1.16 2.29-5.58 4.39-11.23 6.79-16.76z"/>
  <path id="p23" d="m257.68 161.27c5.35.17 10.68.59 16.01 1.03.04 2.87.03 5.74-.04 8.61-5.36-3.16-10.56-6.57-15.97-9.64z"/>
 </defs>
 <use transform="matrix(.35278 0 0 .35278 -88.3 -44.431)" width="100%" height="100%" fill="#333333" xlink:href="#p1"/>
 <use transform="matrix(.35278 0 0 .35278 -88.3 -44.431)" width="100%" height="100%" fill="#e6e6e6" xlink:href="#p5"/>
 <use transform="matrix(.35278 0 0 .35278 -88.3 -44.431)" width="100%" height="100%" fill="#e6e6e6" xlink:href="#p11"/>
 <use transform="matrix(.35278 0 0 .35278 -88.3 -44.431)" width="100%" height="100%" fill="#e6e6e6" xlink:href="#p17"/>
 <use transform="matrix(.35278 0 0 .35278 -88.3 -44.431)" width="100%" height="100%" fill="#e6e6e6" xlink:href="#p18"/>
 <use transform="matrix(.35278 0 0 .35278 -88.3 -44.431)" width="100%" height="100%" fill="#e6e6e6" xlink:href="#p19"/>
 <use transform="matrix(.35278 0 0 .35278 -88.3 -44.431)" width="100%" height="100%" fill="#e6e6e6" xlink:href="#p23"/>
</svg>
