<svg width="64" height="64" version="1.1" viewBox="0 0 16.933 16.933" xmlns="http://www.w3.org/2000/svg" xmlns:xlink="http://www.w3.org/1999/xlink">
 <defs>
  <path id="p9" d="m75.52 132.64c2.74-.49 4.95.51 7.51 1.33 3.76 1.32 7.55 2.58 11.33 3.84.13 8.58 0 17.16.07 25.75-5.8 1.14-11.61 2.24-17.39 3.46-1.71.26-3.32.78-5 .14-4.93-1.74-9.74-3.79-14.67-5.54-.13-8.62-.14-17.28.05-25.9 6.07-.84 12.06-2.07 18.1-3.08zm-14.37 4.01c4.15 1.69 8.39 4.02 12.81 4.81 5.59-.75 11.12-2.21 16.67-3.27-4.48-1.41-9-3.43-13.63-4.14-5.31.59-10.57 1.79-15.85 2.6zm-2.31.9c-.01 7.59 0 15.19-.07 22.79 4.57 1.93 9.18 3.7 13.85 5.37-.1-7.48.21-15.01-.11-22.47-4.26-2.4-9.16-3.78-13.67-5.69z"/>
  <path id="p12" d="m77 134.05c4.63.71 9.15 2.73 13.63 4.14-5.55 1.06-11.08 2.52-16.67 3.27-4.42-.79-8.66-3.12-12.81-4.81 5.28-.81 10.54-2.01 15.85-2.6z"/>
  <path id="p15" d="m58.84 137.55c4.51 1.91 9.41 3.29 13.67 5.69.32 7.46.01 14.99.11 22.47-4.67-1.67-9.28-3.44-13.85-5.37.07-7.6.06-15.2.07-22.79z"/>
 </defs>
 <use transform="matrix(.35278 0 0 .35278 -18.168 -44.278)" width="100%" height="100%" fill="#333333" xlink:href="#p9"/>
 <use transform="matrix(.35278 0 0 .35278 -18.168 -44.278)" width="100%" height="100%" fill="#e6e6e6" xlink:href="#p12"/>
 <use transform="matrix(.35278 0 0 .35278 -18.168 -44.278)" width="100%" height="100%" fill="#e6e6e6" xlink:href="#p15"/>
</svg>
