<svg width="64" height="64" version="1.1" viewBox="0 0 16.933 16.933" xmlns="http://www.w3.org/2000/svg" xmlns:xlink="http://www.w3.org/1999/xlink">
 <defs>
  <path id="p3" d="m125.67 128.55c6.67 6.67 12.56 14.1 19.26 20.76-1.97 3.66-4.96 5.87-7.56 9.1-3.7 4.49-7.76 8.66-11.58 13.06-6.62-6.92-13.1-13.99-19.74-20.89 6.41-7.44 12.97-14.81 19.62-22.03zm-16.87 21.1c8.33-.03 16.67.03 25-.24-2.53-6.23-5.6-12.21-8.19-18.42-5.82 6.02-11.23 12.43-16.81 18.66zm.07 1.54c5.59 5.95 11.2 11.89 16.82 17.8 2.78-5.97 5.45-11.99 8.26-17.95-8.36-.05-16.72.09-25.08.15z"/>
  <path id="p8" d="m125.61 130.99c2.59 6.21 5.66 12.19 8.19 18.42-8.33.27-16.67.21-25 .24 5.58-6.23 10.99-12.64 16.81-18.66z"/>
  <path id="p22" d="m108.87 151.19c8.36-.06 16.72-.2 25.08-.15-2.81 5.96-5.48 11.98-8.26 17.95-5.62-5.91-11.23-11.85-16.82-17.8z"/>
 </defs>
 <use transform="matrix(.35278 0 0 .35278 -35.856 -44.354)" width="100%" height="100%" fill="#333333" xlink:href="#p3"/>
 <use transform="matrix(.35278 0 0 .35278 -35.856 -44.354)" width="100%" height="100%" fill="#e6e6e6" xlink:href="#p8"/>
 <use transform="matrix(.35278 0 0 .35278 -35.856 -44.354)" width="100%" height="100%" fill="#e6e6e6" xlink:href="#p22"/>
</svg>
