<svg version="1.1" width="102.33mm" height="16.362mm" viewBox="0 0 102.33 16.362" xmlns="http://www.w3.org/2000/svg" xmlns:xlink="http://www.w3.org/1999/xlink">
 <defs>
  <path id="p1" d="m274.25 126.84c6.73 3.64 13.04 8.1 19.45 12.26.19 7.24 1.02 14.44 1.16 21.67-6.74 4.13-13.57 8.05-20.14 12.45-5.98-3.18-11.57-7.07-17.42-10.49-1.2-.92-3.61-1.83-3.27-3.68.4-6.78.75-13.59 1.43-20.35 6.38-3.77 12.5-7.95 18.79-11.86zm-9.85 13.35c6.71.04 13.43.06 20.15.03-3.19-3.87-6.66-7.49-9.91-11.3-3.72 3.44-6.91 7.47-10.24 11.27zm1.52-6.22c-2.66 1.72-5.35 3.37-7.99 5.11 1.59.09 3.98 1.63 5.2.09 2.34-2.21 4.27-4.93 6.28-7.44-1.16.75-2.33 1.49-3.49 2.24zm-9.1 6.39c-.1 1.07-.2 2.15-.3 3.23-.33 3.79-.55 7.58-.61 11.39 1.97-4.42 3.69-8.93 5.57-13.39-1.56-.4-3.11-.81-4.66-1.23zm7.03 1.32c3.55 6.13 6.98 12.32 10.69 18.36 3.49-6.12 7.01-12.23 10.53-18.34-7.07.08-14.15.13-21.22-.02zm-1.2 1.16c-2.4 5.53-4.5 11.18-6.79 16.76 5.69.35 11.39.66 17.07 1.16-3.1-6.14-6.76-12.01-10.28-17.92zm-4.97 18.43c5.41 3.07 10.61 6.48 15.97 9.64.07-2.87.08-5.74.04-8.61-5.33-.44-10.66-.86-16.01-1.03z"/>
  <path id="p2" d="m224.82 128.03c3.54 1.72 6.88 3.87 10.3 5.8 4.11 2.33 6.89 5.77 10.11 9.16-.31 4.8.51 10.15-.41 14.79-5.56 4.47-11.7 8.4-17.5 12.57-1.14.54-2.39 2.15-3.65 1.02-5.31-3.68-10.46-7.61-15.86-11.16-1.09-.8-2.43-1.56-3.23-2.67-.48-4.87-.04-9.87-.1-14.76 3.25-3.14 5.64-6.39 9.58-8.66 3.56-2.06 7.1-4.21 10.76-6.09zm-11.6 8.46c1.52 3.42 2.91 6.89 4.24 10.38 4.87.21 9.74.12 14.61.11 1.35-3.54 2.83-7 4.46-10.42-3.83-2.43-7.74-4.74-11.74-6.87-3.98 2.03-7.77 4.45-11.57 6.8zm-7.18 6.83c-.07 4.56-.07 9.11.02 13.66 2.4.91 4.81 1.8 7.22 2.69.79-3.98 2.23-7.85 2.77-11.85-.94-3.59-2.79-6.95-4.06-10.44-1.99 1.97-3.97 3.96-5.95 5.94zm11.65 5.25c-1.21 3.97-2.13 8.05-3.01 12.1 3.39 3.12 6.71 6.31 10.05 9.47 3.29-3.12 6.93-6.04 9.97-9.39.02-4.04-1.89-8.3-2.75-12.27-4.75.07-9.51-.09-14.26.09z"/>
  <path id="p3" d="m125.67 128.55c6.67 6.67 12.56 14.1 19.26 20.76-1.97 3.66-4.96 5.87-7.56 9.1-3.7 4.49-7.76 8.66-11.58 13.06-6.62-6.92-13.1-13.99-19.74-20.89 6.41-7.44 12.97-14.81 19.62-22.03zm-16.87 21.1c8.33-.03 16.67.03 25-.24-2.53-6.23-5.6-12.21-8.19-18.42-5.82 6.02-11.23 12.43-16.81 18.66zm.07 1.54c5.59 5.95 11.2 11.89 16.82 17.8 2.78-5.97 5.45-11.99 8.26-17.95-8.36-.05-16.72.09-25.08.15z"/>
  <path id="p4" d="m174.87 129.15c6.22 5.43 12.63 10.68 18.74 16.25 1.61 1.28 1.62 3.61 2.13 5.5-6.72 6.57-13.28 13.3-19.99 19.88-7.32-6.03-14.12-12.73-21.16-19.09.55-2.53.28-4.83 2.42-6.63 5.93-5.3 11.74-10.83 17.86-15.91zm-8.37 15.22c2.95 1.05 5.85 2.43 8.89 3.21 3.58-.4 7.16-1.88 10.71-2.63-3.49-4.69-7.45-9.03-11.2-13.5-2.95 4.2-5.69 8.55-8.4 12.92zm-10.17 5.51c2.68-1.83 5.53-3.52 8.03-5.6 2.41-2.55 4.06-5.93 5.8-8.96-3.83 3.45-7.71 6.84-11.51 10.32-1.38 1.16-1.8 2.56-2.32 4.24zm.47 1.67c5.9 5.64 12.07 10.99 18.01 16.59.02-6.34 0-12.67-.01-19.01-3.02-1.06-5.98-2.3-8.94-3.52-3.17 1.65-6.1 3.87-9.06 5.94z"/>
  <path id="p5" d="m274.64 128.92c3.25 3.81 6.72 7.43 9.91 11.3-6.72.03-13.44.01-20.15-.03 3.33-3.8 6.52-7.83 10.24-11.27z"/>
  <path id="p6" d="m224.79 129.69c4 2.13 7.91 4.44 11.74 6.87-1.63 3.42-3.11 6.88-4.46 10.42-4.87.01-9.74.1-14.61-.11-1.33-3.49-2.72-6.96-4.24-10.38 3.8-2.35 7.59-4.77 11.57-6.8z"/>
  <path id="p7" d="m28.07 130.5c3.05 3.83 5.42 8.17 8.25 12.17 3.74 5.83 7.76 11.48 11.39 17.38-5.34 2.9-10.63 5.97-16.1 8.61-1.22.72-2.61-.07-3.83-.43-7.62-3.05-15.31-5.93-23-8.83 1.22-1.95 2.53-3.83 4.03-5.57 6.48-7.71 12.6-15.77 19.26-23.33zm-2.89 5.73c-6.14 7.35-12.03 14.9-18.14 22.27 7.54 2.99 15.14 5.84 22.71 8.74-.89-11.19-1.45-22.41-2.45-33.59-.71.86-1.41 1.72-2.12 2.58z"/>
  <path id="p8" d="m125.61 130.99c2.59 6.21 5.66 12.19 8.19 18.42-8.33.27-16.67.21-25 .24 5.58-6.23 10.99-12.64 16.81-18.66z"/>
  <path id="p9" d="m75.52 132.64c2.74-.49 4.95.51 7.51 1.33 3.76 1.32 7.55 2.58 11.33 3.84.13 8.58 0 17.16.07 25.75-5.8 1.14-11.61 2.24-17.39 3.46-1.71.26-3.32.78-5 .14-4.93-1.74-9.74-3.79-14.67-5.54-.13-8.62-.14-17.28.05-25.9 6.07-.84 12.06-2.07 18.1-3.08zm-14.37 4.01c4.15 1.69 8.39 4.02 12.81 4.81 5.59-.75 11.12-2.21 16.67-3.27-4.48-1.41-9-3.43-13.63-4.14-5.31.59-10.57 1.79-15.85 2.6zm-2.31.9c-.01 7.59 0 15.19-.07 22.79 4.57 1.93 9.18 3.7 13.85 5.37-.1-7.48.21-15.01-.11-22.47-4.26-2.4-9.16-3.78-13.67-5.69z"/>
  <path id="p10" d="m174.9 131.45c3.75 4.47 7.71 8.81 11.2 13.5-3.55.75-7.13 2.23-10.71 2.63-3.04-.78-5.94-2.16-8.89-3.21 2.71-4.37 5.45-8.72 8.4-12.92z"/>
  <path id="p11" d="m269.41 131.73c-2.01 2.51-3.94 5.23-6.28 7.44-1.22 1.54-3.61 0-5.2-.09 2.64-1.74 5.33-3.39 7.99-5.11 1.16-.75 2.33-1.49 3.49-2.24z"/>
  <path id="p12" d="m77 134.05c4.63.71 9.15 2.73 13.63 4.14-5.55 1.06-11.08 2.52-16.67 3.27-4.42-.79-8.66-3.12-12.81-4.81 5.28-.81 10.54-2.01 15.85-2.6z"/>
  <path id="p13" d="m27.3 133.65c1 11.18 1.56 22.4 2.45 33.59-7.57-2.9-15.17-5.75-22.71-8.74 6.11-7.37 12-14.92 18.14-22.27.71-.86 1.41-1.72 2.12-2.58z"/>
  <path id="p14" d="m170.16 135.32c-1.74 3.03-3.39 6.41-5.8 8.96-2.5 2.08-5.35 3.77-8.03 5.6.52-1.68.94-3.08 2.32-4.24 3.8-3.48 7.68-6.87 11.51-10.32z"/>
  <path id="p15" d="m58.84 137.55c4.51 1.91 9.41 3.29 13.67 5.69.32 7.46.01 14.99.11 22.47-4.67-1.67-9.28-3.44-13.85-5.37.07-7.6.06-15.2.07-22.79z"/>
  <path id="p16" d="m211.99 137.38c1.27 3.49 3.12 6.85 4.06 10.44-.54 4-1.98 7.87-2.77 11.85-2.41-.89-4.82-1.78-7.22-2.69-.09-4.55-.09-9.1-.02-13.66 1.98-1.98 3.96-3.97 5.95-5.94z"/>
  <path id="p17" d="m256.82 140.36c1.55.42 3.1.83 4.66 1.23-1.88 4.46-3.6 8.97-5.57 13.39.06-3.81.28-7.6.61-11.39.1-1.08.2-2.16.3-3.23z"/>
  <path id="p18" d="m263.85 141.68c7.07.15 14.15.1 21.22.02-3.52 6.11-7.04 12.22-10.53 18.34-3.71-6.04-7.14-12.23-10.69-18.36z"/>
  <path id="p19" d="m262.65 142.84c3.52 5.91 7.18 11.78 10.28 17.92-5.68-.5-11.38-.81-17.07-1.16 2.29-5.58 4.39-11.23 6.79-16.76z"/>
  <path id="p20" d="m165.86 145.61c2.96 1.22 5.92 2.46 8.94 3.52.01 6.34.03 12.67.01 19.01-5.94-5.6-12.11-10.95-18.01-16.59 2.96-2.07 5.89-4.29 9.06-5.94z"/>
  <path id="p21" d="m231.95 148.48c.86 3.97 2.77 8.23 2.75 12.27-3.04 3.35-6.68 6.27-9.97 9.39-3.34-3.16-6.66-6.35-10.05-9.47.88-4.05 1.8-8.13 3.01-12.1 4.75-.18 9.51-.02 14.26-.09z"/>
  <path id="p22" d="m108.87 151.19c8.36-.06 16.72-.2 25.08-.15-2.81 5.96-5.48 11.98-8.26 17.95-5.62-5.91-11.23-11.85-16.82-17.8z"/>
  <path id="p23" d="m257.68 161.27c5.35.17 10.68.59 16.01 1.03.04 2.87.03 5.74-.04 8.61-5.36-3.16-10.56-6.57-15.97-9.64z"/>
 </defs>
 <use transform="matrix(.35278 0 0 .35278 -1.6869 -44.746)" width="100%" height="100%" fill="#333333" xlink:href="#p7"/>
 <use transform="matrix(.35278 0 0 .35278 -1.6869 -44.746)" width="100%" height="100%" fill="#e6e6e6" xlink:href="#p13"/>
 <use transform="matrix(.35278 0 0 .35278 -1.6869 -44.746)" width="100%" height="100%" fill="#333333" xlink:href="#p9"/>
 <use transform="matrix(.35278 0 0 .35278 -1.6869 -44.746)" width="100%" height="100%" fill="#e6e6e6" xlink:href="#p12"/>
 <use transform="matrix(.35278 0 0 .35278 -1.6869 -44.746)" width="100%" height="100%" fill="#e6e6e6" xlink:href="#p15"/>
 <use transform="matrix(.35278 0 0 .35278 -1.6869 -44.746)" width="100%" height="100%" fill="#333333" xlink:href="#p4"/>
 <use transform="matrix(.35278 0 0 .35278 -1.6869 -44.746)" width="100%" height="100%" fill="#e6e6e6" xlink:href="#p10"/>
 <use transform="matrix(.35278 0 0 .35278 -1.6869 -44.746)" width="100%" height="100%" fill="#e6e6e6" xlink:href="#p14"/>
 <use transform="matrix(.35278 0 0 .35278 -1.6869 -44.746)" width="100%" height="100%" fill="#e6e6e6" xlink:href="#p20"/>
 <use transform="matrix(.35278 0 0 .35278 -1.6869 -44.746)" width="100%" height="100%" fill="#333333" xlink:href="#p2"/>
 <use transform="matrix(.35278 0 0 .35278 -1.6869 -44.746)" width="100%" height="100%" fill="#e6e6e6" xlink:href="#p6"/>
 <use transform="matrix(.35278 0 0 .35278 -1.6869 -44.746)" width="100%" height="100%" fill="#e6e6e6" xlink:href="#p16"/>
 <use transform="matrix(.35278 0 0 .35278 -1.6869 -44.746)" width="100%" height="100%" fill="#e6e6e6" xlink:href="#p21"/>
 <use transform="matrix(.35278 0 0 .35278 -1.6869 -44.746)" width="100%" height="100%" fill="#333333" xlink:href="#p3"/>
 <use transform="matrix(.35278 0 0 .35278 -1.6869 -44.746)" width="100%" height="100%" fill="#e6e6e6" xlink:href="#p8"/>
 <use transform="matrix(.35278 0 0 .35278 -1.6869 -44.746)" width="100%" height="100%" fill="#e6e6e6" xlink:href="#p22"/>
 <use transform="matrix(.35278 0 0 .35278 -1.6869 -44.746)" width="100%" height="100%" fill="#333333" xlink:href="#p1"/>
 <use transform="matrix(.35278 0 0 .35278 -1.6869 -44.746)" width="100%" height="100%" fill="#e6e6e6" xlink:href="#p5"/>
 <use transform="matrix(.35278 0 0 .35278 -1.6869 -44.746)" width="100%" height="100%" fill="#e6e6e6" xlink:href="#p11"/>
 <use transform="matrix(.35278 0 0 .35278 -1.6869 -44.746)" width="100%" height="100%" fill="#e6e6e6" xlink:href="#p17"/>
 <use transform="matrix(.35278 0 0 .35278 -1.6869 -44.746)" width="100%" height="100%" fill="#e6e6e6" xlink:href="#p18"/>
 <use transform="matrix(.35278 0 0 .35278 -1.6869 -44.746)" width="100%" height="100%" fill="#e6e6e6" xlink:href="#p19"/>
 <use transform="matrix(.35278 0 0 .35278 -1.6869 -44.746)" width="100%" height="100%" fill="#e6e6e6" xlink:href="#p23"/>
</svg>
