<?xml version="1.0" encoding="iso-8859-1"?>
<!-- Generator: Adobe Illustrator 17.1.0, SVG Export Plug-In . SVG Version: 6.00 Build 0)  -->
<!DOCTYPE svg PUBLIC "-//W3C//DTD SVG 1.1//EN" "http://www.w3.org/Graphics/SVG/1.1/DTD/svg11.dtd">
<svg version="1.1" id="Capa_1" xmlns="http://www.w3.org/2000/svg" xmlns:xlink="http://www.w3.org/1999/xlink" x="0px" y="0px"
	 viewBox="0 0 292.688 292.688" style="enable-background:new 0 0 292.688 292.688;" xml:space="preserve">

	<path d="M130.085,103.496c-0.465-0.465-1.055-0.711-1.706-0.711c-0.562,0-1.148,0.191-1.57,0.514
		c-12.232,9.354-21.145,16.706-33.192,28.754c-26.26,26.26-45.024,52.296-54.264,75.293c-1.82,4.531-3.211,8.866-4.22,13.003
		l-6.067,6.067c-2.339,2.339-2.339,6.145,0,8.484l2.284,2.284c-0.181,0.159-0.364,0.314-0.535,0.485L2.639,265.845
		c-2.133,2.133-3.018,4.581-2.49,6.895c0.527,2.313,2.386,4.136,5.232,5.133l23.478,8.224c1.491,0.523,3.16,0.787,4.961,0.787
		c4.736,0,9.677-1.879,12.586-4.788l14.417-14.417c0.172-0.172,0.326-0.356,0.485-0.537l2.285,2.285
		c1.129,1.13,2.636,1.752,4.242,1.752c1.606,0,3.113-0.622,4.243-1.752l6.065-6.065c25.074-6.186,56.885-27.072,88.297-58.485
		c12.145-12.145,19.54-21.12,28.939-33.436c0.729-0.956,0.643-2.008-0.233-2.886L130.085,103.496z"/>
	<path d="M290.291,77.777L220.715,8.201c-1.544-1.545-3.514-2.396-5.545-2.396c-2.457,0-4.745,1.232-6.276,3.381L190.393,35.14
		c-2.534,3.556-7.107,8.959-10.192,12.045l-22.072,22.071c-3.51,3.509-3.51,9.22,0,12.729l58.379,58.379
		c1.693,1.693,3.954,2.627,6.364,2.627c2.41,0,4.671-0.934,6.364-2.627l22.071-22.072c3.086-3.086,8.489-7.658,12.045-10.192
		l25.955-18.501c1.977-1.409,3.168-3.423,3.355-5.672C292.85,81.677,292.008,79.493,290.291,77.777z"/>
</svg>
