<?xml version="1.0" encoding="iso-8859-1"?>
<!-- Generator: Adobe Illustrator 19.0.0, SVG Export Plug-In . SVG Version: 6.00 Build 0)  -->
<svg version="1.1" id="Layer_1" xmlns="http://www.w3.org/2000/svg" xmlns:xlink="http://www.w3.org/1999/xlink" x="0px" y="0px"
	 viewBox="0 0 512 512" style="enable-background:new 0 0 512 512;" xml:space="preserve">
<polygon style="fill:#DEDDE0;" points="224.492,288.821 224.492,485.744 287.508,512 287.508,288.821 "/>
<path style="fill:#00A1A7;" d="M256,0c-32.851,0-59.301,20.874-72.822,48.69c-6.786,13.961-14.335,52.017-21.294,95.72
	c-0.017,0.021,41.603,52.513,41.603,52.513s-47.59-12.698-47.598-12.681c-10.254,71.751-18.043,143.963-18.043,143.963L256,433.231
	C256,433.231,256,82.708,256,0z"/>
<path style="fill:#00D7DF;" d="M256,0c32.851,0,59.301,20.874,72.822,48.69c6.786,13.961,14.335,52.017,21.294,95.72
	c0.017,0.021-41.603,52.513-41.603,52.513s47.59-12.698,47.598-12.681c10.253,71.751,18.043,143.963,18.043,143.963L256,433.231
	C256,433.231,256,82.708,256,0z"/>
<g>
</g>
<g>
</g>
<g>
</g>
<g>
</g>
<g>
</g>
<g>
</g>
<g>
</g>
<g>
</g>
<g>
</g>
<g>
</g>
<g>
</g>
<g>
</g>
<g>
</g>
<g>
</g>
<g>
</g>
</svg>
