<?xml version="1.0" encoding="iso-8859-1"?>
<!-- Generator: Adobe Illustrator 19.0.0, SVG Export Plug-In . SVG Version: 6.00 Build 0)  -->
<svg version="1.1" id="Layer_1" xmlns="http://www.w3.org/2000/svg" xmlns:xlink="http://www.w3.org/1999/xlink" x="0px" y="0px"
	 viewBox="0 0 512 512" style="enable-background:new 0 0 512 512;" xml:space="preserve">
<rect x="203.487" style="fill:#565659;" width="105.026" height="78.769"/>
<rect x="203.487" width="52.513" height="78.769"/>
<polygon style="fill:#FF9811;" points="177.231,52.513 164.103,341.333 256,354.462 347.897,341.333 334.769,52.513 256,52.513 "/>
<g>
	<polygon style="fill:#FF5023;" points="177.231,52.513 164.103,341.333 256,341.333 256,52.513 	"/>
	<polygon style="fill:#FF5023;" points="224.492,446.359 224.492,485.744 287.508,512 287.508,446.359 	"/>
</g>
<polygon style="fill:#565659;" points="256,341.333 164.103,341.333 164.103,380.718 224.492,435.221 224.492,459.487 256,459.487 
	287.508,459.487 287.508,435.221 347.897,380.718 347.897,341.333 "/>
<polygon points="256,341.333 256,459.487 224.492,459.487 224.492,435.221 164.103,380.718 164.103,341.333 "/>
<g>
</g>
<g>
</g>
<g>
</g>
<g>
</g>
<g>
</g>
<g>
</g>
<g>
</g>
<g>
</g>
<g>
</g>
<g>
</g>
<g>
</g>
<g>
</g>
<g>
</g>
<g>
</g>
<g>
</g>
</svg>
